<!DOCTYPE svg PUBLIC "-//W3C//DTD SVG 1.1//EN" "http://www.w3.org/Graphics/SVG/1.1/DTD/svg11.dtd">
<!-- Uploaded to: SVG Repo, www.svgrepo.com, Transformed by: SVG Repo Mixer Tools -->
<svg width="800px" height="800px" viewBox="0 0 1024 1024" class="icon" version="1.1" xmlns="http://www.w3.org/2000/svg" fill="#000000">
<g id="SVGRepo_bgCarrier" stroke-width="0"/>
<g id="SVGRepo_tracerCarrier" stroke-linecap="round" stroke-linejoin="round"/>
<g id="SVGRepo_iconCarrier">
<path d="M434.452 904.856c0 30.647 24.843 55.49 55.489 55.49h36.993c30.647 0 55.49-24.843 55.49-55.49V886.36H434.452v18.496z m73.986-832.342c-173.66 0-314.44 140.78-314.44 314.44 0 95.368 42.457 180.82 109.499 238.486 41.118 35.365 130.955 223.926 130.955 223.926h147.972s89.893-188.849 130.128-223.219c67.521-57.672 110.326-143.433 110.326-239.193 0.001-173.659-140.78-314.44-314.44-314.44z m180.101 524.718C653.037 627.509 573.72 812.374 573.72 812.374h-46.785V579.401l87.181-87.181c7.173-7.175 7.173-18.805 0-25.978-7.173-7.173-18.804-7.173-25.978 0l-79.61 79.61-107.895-107.895c-7.225-7.225-18.935-7.225-26.158 0-7.225 7.223-7.225 18.933 0 26.158l112.292 112.292c0.981 0.981 2.05 1.817 3.174 2.531v233.436h-46.785s-79.269-184.61-115.548-215.765c-59.157-50.801-96.618-126.079-96.618-210.094 0-152.986 124.217-277.007 277.447-277.007s277.447 124.021 277.447 277.007c0.002 84.358-37.768 159.911-97.345 210.717z" fill="#000000"/>
</g>
</svg>